<svg width="40" height="37" viewBox="0 0 40 37" fill="none" xmlns="http://www.w3.org/2000/svg">
<path d="M38.0625 7.1625L25 15.7375V8.5C25.0008 8.26346 24.9345 8.03154 24.8087 7.83119C24.683 7.63085 24.5029 7.47029 24.2896 7.36819C24.0762 7.26608 23.8382 7.22662 23.6033 7.25437C23.3684 7.28213 23.1462 7.37598 22.9625 7.525L15.0875 14.1125H10V1.6875L2.5 0V14.1125H0V35.3625C0 35.694 0.131696 36.012 0.366116 36.2464C0.600537 36.4808 0.918479 36.6125 1.25 36.6125H38.75C39.0815 36.6125 39.3995 36.4808 39.6339 36.2464C39.8683 36.012 40 35.694 40 35.3625V8.2C39.9988 7.9749 39.9369 7.75429 39.8208 7.56146C39.7046 7.36864 39.5385 7.21075 39.3401 7.10449C39.1417 6.99822 38.9182 6.94752 38.6933 6.95773C38.4684 6.96794 38.2505 7.03869 38.0625 7.1625ZM15 32.8625H5V30.3625H15V32.8625ZM15 27.8625H5V25.3625H15V27.8625ZM15 22.8625H5V20.3625H15V22.8625ZM25 32.8625H22.5V29.1125H25V32.8625ZM25 25.3625H22.5V21.6125H25V25.3625ZM30 32.8625H27.5V29.1125H30V32.8625ZM30 25.3625H27.5V21.6125H30V25.3625ZM35 32.8625H32.5V29.1125H35V32.8625ZM35 25.3625H32.5V21.6125H35V25.3625Z" fill="#1A66FE"/>
</svg>
