<svg width="40" height="40" viewBox="0 0 40 40" fill="none" xmlns="http://www.w3.org/2000/svg">
<path d="M37.8696 14.0851L26.1379 12.2602L20.8934 0.880338C20.7502 0.568764 20.5146 0.316538 20.2235 0.163224C19.4934 -0.222535 18.6062 0.0989307 18.2412 0.880338L12.9968 12.2602L1.26505 14.0851C0.94161 14.1346 0.64589 14.2978 0.41948 14.5451C0.145762 14.8462 -0.0050684 15.2513 0.000130052 15.6714C0.0053285 16.0915 0.166131 16.4922 0.447204 16.7854L8.93528 25.643L6.92993 38.1505C6.88291 38.4415 6.91299 38.7407 7.01676 39.0143C7.12054 39.2879 7.29386 39.5249 7.51707 39.6984C7.74028 39.8719 8.00445 39.975 8.27961 39.996C8.55478 40.017 8.82995 39.9551 9.0739 39.8172L19.5673 33.9121L30.0608 39.8172C30.3472 39.9804 30.6799 40.0348 30.9987 39.9754C31.8027 39.8271 32.3433 39.0111 32.2047 38.1505L30.1994 25.643L38.6875 16.7854C38.9185 16.5431 39.071 16.2266 39.1172 15.8804C39.2419 15.0149 38.6782 14.2137 37.8696 14.0851Z" fill="#1A66FE"/>
</svg>
